<svg version="1.1" id="Layer_1" xmlns="http://www.w3.org/2000/svg" xmlns:xlink="http://www.w3.org/1999/xlink" x="0px" y="0px"
	 width="100%" viewBox="0 0 500 500" enable-background="new 0 0 500 500" xml:space="preserve">
<path fill="#012C18" opacity="1.000000" stroke="none" 
	d="
M228.000000,501.000000 
	C152.000015,501.000000 76.500038,501.000000 1.000041,501.000000 
	C1.000027,334.333405 1.000027,167.666779 1.000013,1.000130 
	C167.666565,1.000087 334.333130,1.000087 500.999756,1.000043 
	C500.999847,167.666534 500.999847,334.333069 500.999939,500.999817 
	C410.166656,501.000000 319.333344,501.000000 228.000000,501.000000 
M201.077591,187.593597 
	C200.845978,187.815887 200.643326,188.062027 200.067429,188.620499 
	C199.834885,188.857101 199.637375,189.120026 199.076218,189.671249 
	C198.833572,189.881851 198.633652,190.127243 198.077271,190.670074 
	C197.834366,190.881149 197.634079,191.126968 197.085724,191.703568 
	C197.085724,191.703568 196.949722,192.174515 196.218018,192.078796 
	C194.742798,192.085510 193.267578,192.096649 191.792358,192.097763 
	C190.122040,192.099045 188.451721,192.091309 186.673767,191.567947 
	C186.264481,191.239441 185.855194,190.910950 185.237900,190.137695 
	C185.044785,189.860504 184.792786,189.655823 184.248642,189.104462 
	C184.052856,188.842758 183.808624,188.639145 183.003662,187.818604 
	C182.159943,186.729797 181.316238,185.640991 181.327286,184.764923 
	C181.825134,184.499802 182.322998,184.234680 183.406906,184.182831 
	C187.589142,179.881805 191.771378,175.580765 196.752411,170.943649 
	C197.491745,170.636124 198.229675,170.064545 198.970627,170.060608 
	C210.466064,169.999557 221.961899,170.003281 233.457581,170.026825 
	C234.245590,170.028427 235.110504,170.144928 235.807892,170.481216 
	C239.733414,172.374207 239.719650,172.402740 241.962677,167.450623 
	C218.445312,170.513351 195.239182,167.605438 171.153976,169.009567 
	C175.261612,160.837204 178.826263,153.745560 182.390518,146.653748 
	C185.434830,140.596527 184.946075,136.609619 180.907944,134.555359 
	C176.827911,132.479782 173.371277,134.444778 170.256775,140.612152 
	C170.182053,140.760117 170.133408,140.921310 170.057770,141.068741 
	C149.889130,180.373322 129.727982,219.681732 109.539078,258.975922 
	C106.747910,264.408417 103.819191,269.770233 100.933067,275.204498 
	C88.576683,266.593323 78.531822,255.715073 70.334877,242.202454 
	C67.271935,237.153214 66.148941,236.797897 61.322235,239.828018 
	C56.815636,242.657150 52.482212,245.765335 47.940845,248.534698 
	C45.231133,250.187103 45.035114,251.804398 46.409634,254.625916 
	C52.073677,266.252747 60.516842,275.557953 70.397118,283.593292 
	C76.401657,288.476624 82.871147,292.788269 89.119499,297.347748 
	C84.370529,307.716461 84.101875,311.190857 88.737732,313.010925 
	C97.510887,316.455353 98.177452,307.768707 101.843666,303.304504 
	C127.956680,314.819855 155.390793,319.028412 183.648666,318.462280 
	C191.964722,318.295685 200.283051,317.621643 208.562347,316.798187 
	C210.106644,316.644592 211.469818,314.669739 212.916565,313.535400 
	C211.619247,312.335388 210.510117,310.592377 208.980621,310.062286 
	C206.672211,309.262299 204.073837,309.278717 201.592850,309.000153 
	C179.889084,306.563324 158.418762,302.971008 137.974655,294.951080 
	C129.243134,291.525818 120.765800,287.452637 112.036964,283.614075 
	C125.195602,258.195526 137.778717,233.867188 150.386688,209.551712 
	C152.984802,204.541031 154.500381,197.593903 158.646423,195.138687 
	C162.995956,192.562943 169.921936,194.014236 175.697189,194.268173 
	C180.669479,194.486771 185.597244,195.587524 190.563766,196.120743 
	C193.228348,196.406799 196.094147,196.660767 197.593658,193.021896 
	C197.778870,192.730194 197.964096,192.438507 198.643143,192.004288 
	C198.811829,191.718430 198.980515,191.432556 199.643005,191.004196 
	C199.811630,190.718353 199.980255,190.432495 200.641617,190.005234 
	C200.813583,189.721603 200.985550,189.437973 201.647293,188.998688 
	C201.810272,188.709137 201.973251,188.419601 202.622025,187.976425 
	C202.787857,187.692184 202.953705,187.407944 203.607620,186.985306 
	C203.791290,186.710785 203.974945,186.436249 205.072739,186.081345 
	C211.182388,186.081345 217.292053,186.081345 223.401703,186.081345 
	C221.502625,184.995438 219.596039,185.087067 217.701309,184.976227 
	C213.841446,184.750458 209.987976,184.415527 206.618530,183.971680 
	C206.781326,183.684845 206.944122,183.398010 207.591705,182.951340 
	C207.759338,182.667175 207.926987,182.382996 208.583801,181.954376 
	C208.758820,181.673920 208.933838,181.393478 209.854538,181.052200 
	C211.751617,179.367355 213.648697,177.682495 216.408478,176.116241 
	C225.428024,176.116241 234.447556,176.116241 243.467102,176.116241 
	C243.206055,174.782761 242.352539,173.803329 241.492493,173.797546 
	C235.550797,173.757721 229.603989,173.824860 223.666611,174.057144 
	C220.435944,174.183533 217.220581,174.701202 213.317856,175.202652 
	C211.637177,176.952423 209.956497,178.702179 207.905823,180.743881 
	C207.640747,180.926529 207.433151,181.160248 206.901627,181.749924 
	C206.623581,181.936005 206.408401,182.178009 205.958557,182.685211 
	C205.772064,182.844635 205.617142,183.030365 205.000931,183.621704 
	C204.446320,184.235489 203.891708,184.849274 202.957443,185.746613 
	C202.699585,185.939636 202.493439,186.177475 202.003326,186.697662 
	C201.792572,186.877747 201.616608,187.087082 201.077591,187.593597 
M252.961075,155.792679 
	C252.480225,156.342194 251.999390,156.891708 251.045502,157.766922 
	C250.953735,158.222672 250.861984,158.678421 250.770233,159.134186 
	C251.210434,158.791946 251.650635,158.449707 253.016586,158.081390 
	C261.369446,158.081390 269.722321,158.081390 278.075195,158.081390 
	C274.943390,157.004410 271.818237,157.113495 268.703583,156.979263 
	C263.834656,156.769409 258.972900,156.394852 254.616943,155.841080 
	C254.658981,155.423416 254.701035,155.005768 254.743073,154.588120 
	C254.308975,154.897003 253.874863,155.205887 252.961075,155.792679 
M308.358856,266.121582 
	C308.530304,266.137482 308.701752,266.153351 308.967499,266.882721 
	C315.615295,283.052307 330.895966,288.035553 347.834473,279.472595 
	C348.547272,284.689728 347.557770,289.335114 342.537476,291.760803 
	C334.873291,295.464020 328.043365,293.598846 322.344055,287.376648 
	C317.708496,289.699677 313.289764,291.914032 308.849579,294.139160 
	C312.059937,301.249664 317.293488,305.521942 324.346497,306.884644 
	C329.670868,307.913330 335.263153,308.438141 340.656921,308.059052 
	C356.683258,306.932617 365.014679,297.716187 365.105042,281.799866 
	C365.135437,276.441803 365.109833,271.083405 365.109833,265.725159 
	C371.193604,278.227203 381.298431,283.315582 394.342468,283.438904 
	C407.544769,283.563721 417.519897,278.005554 424.078491,266.117401 
	C424.078491,271.348450 424.078491,276.579498 424.078491,281.671753 
	C429.866699,281.671753 435.268433,281.671753 440.605591,281.671753 
	C440.605591,254.102753 440.605591,226.868820 440.605591,199.504730 
	C434.914520,199.504730 429.514130,199.504730 423.713928,199.504730 
	C423.713928,216.158615 423.713928,232.517944 423.713928,248.877274 
	C417.387482,236.606354 407.242249,231.032608 394.013611,231.237701 
	C380.821167,231.442261 370.877655,237.305954 365.016296,249.731949 
	C365.016296,244.168793 365.016296,238.605621 365.016296,232.932175 
	C359.231232,232.932175 353.801117,232.932175 348.416351,232.932175 
	C348.118195,234.257736 347.870148,235.360596 347.588165,236.614243 
	C332.109467,226.163467 315.216003,231.348373 308.371124,248.294373 
	C308.152252,248.213562 307.933350,248.132751 307.760559,247.112717 
	C307.760559,242.488464 307.760559,237.864212 307.760559,232.503647 
	C301.433990,234.150711 294.729675,229.744949 289.190826,235.897812 
	C283.034576,231.504776 275.784241,229.968613 267.895660,232.040512 
	C259.902496,234.139877 255.051498,239.813599 251.856308,246.283035 
	C243.496445,229.477966 231.239838,227.441696 215.643555,236.552017 
	C215.363419,235.243042 215.101639,234.019958 214.895950,233.058838 
	C209.154388,233.058838 203.742905,233.058838 198.415009,233.058838 
	C198.415009,249.496826 198.415009,265.582336 198.415009,281.791382 
	C204.109192,281.791382 209.527924,281.791382 215.274673,281.791382 
	C215.274673,273.271027 215.242081,264.961212 215.284561,256.651733 
	C215.321289,249.467194 219.215485,244.818283 225.179596,244.711029 
	C231.015793,244.606094 234.085434,248.644012 234.102539,256.512512 
	C234.120865,264.936707 234.106674,273.360992 234.106674,281.715027 
	C240.170609,281.715027 245.592712,281.715027 251.448273,281.715027 
	C251.448273,277.268066 251.448273,273.108032 251.448273,267.752075 
	C255.647675,275.810730 260.736908,281.185364 268.643738,282.820221 
	C276.053650,284.352234 283.323395,283.454437 290.203674,279.638214 
	C290.537048,286.935669 289.226715,290.032990 284.367828,292.083649 
	C276.963531,295.208557 270.447906,293.442474 264.879364,287.404633 
	C260.383179,289.630371 255.965546,291.817200 251.380890,294.086700 
	C254.211121,300.701660 258.985291,304.610016 265.252655,306.548859 
	C273.022583,308.952545 280.986511,309.230255 288.901337,307.178101 
	C300.927979,304.059845 307.211639,296.318329 307.699280,283.950928 
	C307.935333,277.964233 307.820953,271.963745 308.358856,266.121582 
M158.219757,283.175293 
	C165.539841,284.220062 171.971008,282.276062 177.840500,276.746918 
	C177.981827,278.882568 178.080353,280.371368 178.163986,281.635254 
	C184.050064,281.635254 189.448410,281.635254 194.691284,281.635254 
	C194.691284,265.190125 194.691284,249.116470 194.691284,232.940063 
	C189.013824,232.940063 183.595383,232.940063 178.229431,232.940063 
	C177.946564,234.274460 177.713135,235.375610 177.451019,236.612122 
	C167.777710,229.964203 158.173584,229.056198 148.536133,235.087799 
	C139.756668,240.582428 135.538712,251.824539 137.634216,262.644623 
	C139.786789,273.759308 146.644165,280.844482 158.219757,283.175293 
M207.112549,160.230026 
	C205.811584,160.128036 204.510620,160.026062 203.209656,159.924072 
	C203.152954,160.438156 203.096237,160.952225 203.039520,161.466309 
	C204.282486,162.177383 205.541443,163.524002 206.765747,163.493210 
	C213.232071,163.330551 219.693222,162.867645 226.146271,162.378281 
	C227.053070,162.309509 227.905380,161.522034 228.782898,161.067230 
	C227.927994,160.570450 227.069794,159.639923 226.218689,159.646347 
	C220.096725,159.692551 213.976196,159.928864 207.112549,160.230026 
M260.526367,163.004410 
	C255.601471,163.004410 250.676590,163.004410 245.751694,163.004410 
	C245.767349,163.198837 245.783005,163.393280 245.798660,163.587708 
	C258.866150,163.587708 271.933624,163.587708 285.001099,163.587708 
	C284.997742,163.393280 284.994415,163.198837 284.991089,163.004410 
	C277.166626,163.004410 269.342163,163.004410 260.526367,163.004410 
M277.361145,151.004410 
	C271.093781,151.004410 264.826447,151.004410 258.559082,151.004410 
	C258.564423,151.245743 258.569763,151.487091 258.575104,151.728424 
	C267.116852,151.728424 275.658600,151.728424 284.200348,151.728424 
	C284.200745,151.487091 284.201172,151.245743 284.201599,151.004410 
	C282.237885,151.004410 280.274170,151.004410 277.361145,151.004410 
M189.510529,164.694260 
	C189.444077,164.745346 189.377625,164.796432 189.510529,164.694260 
M202.525284,163.505768 
	C202.525284,163.505768 202.489792,163.495956 202.525284,163.505768 
z"/>
<path fill="#FCFCFC" opacity="1.000000" stroke="none" 
	d="
M309.018463,248.028015 
	C315.216003,231.348373 332.109467,226.163467 347.588165,236.614243 
	C347.870148,235.360596 348.118195,234.257736 348.416351,232.932175 
	C353.801117,232.932175 359.231232,232.932175 365.016296,232.932175 
	C365.016296,238.605621 365.016296,244.168793 365.016296,249.731949 
	C370.877655,237.305954 380.821167,231.442261 394.013611,231.237701 
	C407.242249,231.032608 417.387482,236.606354 423.713928,248.877274 
	C423.713928,232.517944 423.713928,216.158615 423.713928,199.504730 
	C429.514130,199.504730 434.914520,199.504730 440.605591,199.504730 
	C440.605591,226.868820 440.605591,254.102753 440.605591,281.671753 
	C435.268433,281.671753 429.866699,281.671753 424.078491,281.671753 
	C424.078491,276.579498 424.078491,271.348450 424.078491,266.117401 
	C417.519897,278.005554 407.544769,283.563721 394.342468,283.438904 
	C381.298431,283.315582 371.193604,278.227203 365.109833,265.725159 
	C365.109833,271.083405 365.135437,276.441803 365.105042,281.799866 
	C365.014679,297.716187 356.683258,306.932617 340.656921,308.059052 
	C335.263153,308.438141 329.670868,307.913330 324.346497,306.884644 
	C317.293488,305.521942 312.059937,301.249664 308.849579,294.139160 
	C313.289764,291.914032 317.708496,289.699677 322.344055,287.376648 
	C328.043365,293.598846 334.873291,295.464020 342.537476,291.760803 
	C347.557770,289.335114 348.547272,284.689728 347.834473,279.472595 
	C330.895966,288.035553 315.615295,283.052307 308.969299,266.157501 
	C308.338165,263.695099 307.705261,261.957947 307.053345,259.768097 
	C307.057404,258.108032 307.080475,256.900635 307.329407,255.445984 
	C308.043030,252.808517 308.530762,250.418259 309.018463,248.028015 
M388.350830,247.563049 
	C380.821320,253.919312 381.543427,264.585907 389.731201,267.952911 
	C394.631958,269.968231 400.239746,268.697937 403.372162,264.862976 
	C406.668304,260.827576 406.844055,254.699768 403.785370,250.453476 
	C400.549713,245.961517 395.495178,244.827957 388.350830,247.563049 
M348.009003,254.137085 
	C344.921753,246.942535 338.998688,244.098984 332.584259,246.731979 
	C326.655029,249.165817 323.976562,255.935349 326.491638,262.130402 
	C328.787933,267.786560 335.486237,270.415222 341.509186,268.023865 
	C346.498932,266.042694 348.515198,262.067932 348.009003,254.137085 
z"/>
<path fill="#FBFCFC" opacity="1.000000" stroke="none" 
	d="
M197.061676,193.093445 
	C196.094147,196.660767 193.228348,196.406799 190.563766,196.120743 
	C185.597244,195.587524 180.669479,194.486771 175.697189,194.268173 
	C169.921936,194.014236 162.995956,192.562943 158.646423,195.138687 
	C154.500381,197.593903 152.984802,204.541031 150.386688,209.551712 
	C137.778717,233.867188 125.195602,258.195526 112.036964,283.614075 
	C120.765800,287.452637 129.243134,291.525818 137.974655,294.951080 
	C158.418762,302.971008 179.889084,306.563324 201.592850,309.000153 
	C204.073837,309.278717 206.672211,309.262299 208.980621,310.062286 
	C210.510117,310.592377 211.619247,312.335388 212.916565,313.535400 
	C211.469818,314.669739 210.106644,316.644592 208.562347,316.798187 
	C200.283051,317.621643 191.964722,318.295685 183.648666,318.462280 
	C155.390793,319.028412 127.956680,314.819855 101.843666,303.304504 
	C98.177452,307.768707 97.510887,316.455353 88.737732,313.010925 
	C84.101875,311.190857 84.370529,307.716461 89.119499,297.347748 
	C82.871147,292.788269 76.401657,288.476624 70.397118,283.593292 
	C60.516842,275.557953 52.073677,266.252747 46.409634,254.625916 
	C45.035114,251.804398 45.231133,250.187103 47.940845,248.534698 
	C52.482212,245.765335 56.815636,242.657150 61.322235,239.828018 
	C66.148941,236.797897 67.271935,237.153214 70.334877,242.202454 
	C78.531822,255.715073 88.576683,266.593323 100.933067,275.204498 
	C103.819191,269.770233 106.747910,264.408417 109.539078,258.975922 
	C129.727982,219.681732 149.889130,180.373322 170.057770,141.068741 
	C170.133408,140.921310 170.182053,140.760117 170.256775,140.612152 
	C173.371277,134.444778 176.827911,132.479782 180.907944,134.555359 
	C184.946075,136.609619 185.434830,140.596527 182.390518,146.653748 
	C178.826263,153.745560 175.261612,160.837204 171.153976,169.009567 
	C195.239182,167.605438 218.445312,170.513351 241.962677,167.450623 
	C239.719650,172.402740 239.733414,172.374207 235.807892,170.481216 
	C235.110504,170.144928 234.245590,170.028427 233.457581,170.026825 
	C221.961899,170.003281 210.466064,169.999557 198.970627,170.060608 
	C198.229675,170.064545 197.491745,170.636124 196.216492,170.686310 
	C191.793045,170.713425 187.905548,170.997849 183.824982,170.950684 
	C183.403351,170.504181 183.174789,170.389282 182.504471,170.139557 
	C179.110184,169.995972 176.143173,169.815094 173.212128,170.061569 
	C172.005966,170.162994 170.395645,170.886230 169.803528,171.842987 
	C168.033234,174.703537 166.675415,177.819336 165.028000,181.144745 
	C164.899902,181.899887 164.900345,182.345749 164.553101,182.949097 
	C163.785721,184.250198 163.366028,185.393799 162.827469,186.714905 
	C162.676834,187.192825 162.757355,187.459274 162.595154,187.795349 
	C161.180832,189.386230 160.121475,190.873489 158.607010,192.999710 
	C166.255783,192.999710 172.947189,193.079727 179.634705,192.953369 
	C181.778946,192.912842 183.912872,192.326813 186.226013,192.074631 
	C186.400513,192.158890 186.781403,192.087479 186.781403,192.087479 
	C188.451721,192.091309 190.122040,192.099045 191.792358,192.097763 
	C193.267578,192.096649 194.742798,192.085510 196.534576,192.365799 
	C196.851151,192.652802 197.061676,193.093445 197.061676,193.093445 
z"/>
<path fill="#FCFCFC" opacity="1.000000" stroke="none" 
	d="
M307.103516,255.693222 
	C307.080475,256.900635 307.057404,258.108032 307.072510,260.143860 
	C307.362213,262.638000 307.613708,264.303741 307.865234,265.969482 
	C307.820953,271.963745 307.935333,277.964233 307.699280,283.950928 
	C307.211639,296.318329 300.927979,304.059845 288.901337,307.178101 
	C280.986511,309.230255 273.022583,308.952545 265.252655,306.548859 
	C258.985291,304.610016 254.211121,300.701660 251.380890,294.086700 
	C255.965546,291.817200 260.383179,289.630371 264.879364,287.404633 
	C270.447906,293.442474 276.963531,295.208557 284.367828,292.083649 
	C289.226715,290.032990 290.537048,286.935669 290.203674,279.638214 
	C283.323395,283.454437 276.053650,284.352234 268.643738,282.820221 
	C260.736908,281.185364 255.647675,275.810730 251.448273,267.752075 
	C251.448273,273.108032 251.448273,277.268066 251.448273,281.715027 
	C245.592712,281.715027 240.170609,281.715027 234.106674,281.715027 
	C234.106674,273.360992 234.120865,264.936707 234.102539,256.512512 
	C234.085434,248.644012 231.015793,244.606094 225.179596,244.711029 
	C219.215485,244.818283 215.321289,249.467194 215.284561,256.651733 
	C215.242081,264.961212 215.274673,273.271027 215.274673,281.791382 
	C209.527924,281.791382 204.109192,281.791382 198.415009,281.791382 
	C198.415009,265.582336 198.415009,249.496826 198.415009,233.058838 
	C203.742905,233.058838 209.154388,233.058838 214.895950,233.058838 
	C215.101639,234.019958 215.363419,235.243042 215.643555,236.552017 
	C231.239838,227.441696 243.496445,229.477966 251.856308,246.283035 
	C255.051498,239.813599 259.902496,234.139877 267.895660,232.040512 
	C275.784241,229.968613 283.034576,231.504776 289.190826,235.897812 
	C294.729675,229.744949 301.433990,234.150711 307.760559,232.503647 
	C307.760559,237.864212 307.760559,242.488464 307.492065,247.879959 
	C307.183563,250.995880 307.143555,253.344543 307.103516,255.693222 
M277.031952,246.055176 
	C270.760712,248.435745 267.845947,252.096619 268.082611,257.679718 
	C268.289093,262.550262 270.363129,266.338409 275.190399,268.069855 
	C280.012024,269.799225 284.493744,269.049133 287.984650,265.231476 
	C291.302551,261.603058 291.922119,257.181122 289.973419,252.678162 
	C287.705750,247.438126 283.418243,245.455582 277.031952,246.055176 
z"/>
<path fill="#FCFCFC" opacity="1.000000" stroke="none" 
	d="
M157.814514,283.125946 
	C146.644165,280.844482 139.786789,273.759308 137.634216,262.644623 
	C135.538712,251.824539 139.756668,240.582428 148.536133,235.087799 
	C158.173584,229.056198 167.777710,229.964203 177.451019,236.612122 
	C177.713135,235.375610 177.946564,234.274460 178.229431,232.940063 
	C183.595383,232.940063 189.013824,232.940063 194.691284,232.940063 
	C194.691284,249.116470 194.691284,265.190125 194.691284,281.635254 
	C189.448410,281.635254 184.050064,281.635254 178.163986,281.635254 
	C178.080353,280.371368 177.981827,278.882568 177.840500,276.746918 
	C171.971008,282.276062 165.539841,284.220062 157.814514,283.125946 
M178.117767,257.485413 
	C177.445709,249.976257 173.278503,245.796967 166.564041,245.898209 
	C160.282181,245.992920 155.648529,250.527649 155.334457,256.888000 
	C155.020813,263.239868 159.227371,268.175171 165.526108,268.845245 
	C172.111389,269.545807 176.817993,265.601166 178.117767,257.485413 
z"/>
<path fill="#103825" opacity="1.000000" stroke="none" 
	d="
M184.018036,171.282288 
	C187.905548,170.997849 191.793045,170.713425 195.817078,170.854370 
	C191.771378,175.580765 187.589142,179.881805 183.024536,183.718277 
	C182.767944,182.164597 182.893692,181.075485 182.921417,180.835480 
	C176.891724,180.835480 171.024139,180.835480 165.156540,180.835480 
	C166.675415,177.819336 168.033234,174.703537 169.803528,171.842987 
	C170.395645,170.886230 172.005966,170.162994 173.212128,170.061569 
	C176.143173,169.815094 179.110184,169.995972 182.350128,170.382690 
	C182.388138,171.274918 182.138702,171.789154 181.525208,172.334229 
	C178.727097,172.540024 176.293060,172.714966 173.859009,172.889893 
	C177.320389,177.089874 180.252563,177.741241 182.539795,172.980865 
	C183.186646,172.400345 183.602341,171.841324 184.018036,171.282288 
z"/>
<path fill="#456556" opacity="1.000000" stroke="none" 
	d="
M213.998306,175.042389 
	C217.220581,174.701202 220.435944,174.183533 223.666611,174.057144 
	C229.603989,173.824860 235.550797,173.757721 241.492493,173.797546 
	C242.352539,173.803329 243.206055,174.782761 243.467102,176.116241 
	C234.447556,176.116241 225.428024,176.116241 215.663498,176.000488 
	C214.611786,175.603943 214.305054,175.323166 213.998306,175.042389 
z"/>
<path fill="#456556" opacity="1.000000" stroke="none" 
	d="
M207.483887,160.167450 
	C213.976196,159.928864 220.096725,159.692551 226.218689,159.646347 
	C227.069794,159.639923 227.927994,160.570450 228.782898,161.067230 
	C227.905380,161.522034 227.053070,162.309509 226.146271,162.378281 
	C219.693222,162.867645 213.232071,163.330551 206.765747,163.493210 
	C205.541443,163.524002 204.282486,162.177383 203.039520,161.466309 
	C203.096237,160.952225 203.152954,160.438156 203.209656,159.924072 
	C204.510620,160.026062 205.811584,160.128036 207.483887,160.167450 
z"/>
<path fill="#D0D8D4" opacity="1.000000" stroke="none" 
	d="
M162.950150,187.691742 
	C162.757355,187.459274 162.676834,187.192825 163.286026,186.645020 
	C169.507187,186.168228 175.335709,187.252945 180.488831,184.107773 
	C180.416336,184.165787 180.472534,184.552185 180.472534,184.552185 
	C181.316238,185.640991 182.159943,186.729797 183.108582,188.301651 
	C183.213501,188.784698 182.920120,189.084824 182.543243,189.023773 
	C181.110550,189.230362 180.020035,189.820801 179.004700,189.711685 
	C173.642761,189.135483 168.299728,188.383057 162.950150,187.691742 
z"/>
<path fill="#81978D" opacity="1.000000" stroke="none" 
	d="
M261.022034,163.004410 
	C269.342163,163.004410 277.166626,163.004410 284.991089,163.004410 
	C284.994415,163.198837 284.997742,163.393280 285.001099,163.587708 
	C271.933624,163.587708 258.866150,163.587708 245.798660,163.587708 
	C245.783005,163.393280 245.767349,163.198837 245.751694,163.004410 
	C250.676590,163.004410 255.601471,163.004410 261.022034,163.004410 
z"/>
<path fill="#A3B3AB" opacity="1.000000" stroke="none" 
	d="
M180.899902,184.658554 
	C180.472534,184.552185 180.416336,184.165787 180.188782,183.753540 
	C174.941086,183.158051 169.920929,182.974838 164.900787,182.791611 
	C164.900345,182.345749 164.899902,181.899887 165.028000,181.144745 
	C171.024139,180.835480 176.891724,180.835480 182.921417,180.835480 
	C182.893692,181.075485 182.767944,182.164597 182.731506,183.611633 
	C182.322998,184.234680 181.825134,184.499802 180.899902,184.658554 
z"/>
<path fill="#81978D" opacity="1.000000" stroke="none" 
	d="
M251.518539,157.441223 
	C251.999390,156.891708 252.480225,156.342194 253.363831,155.802063 
	C253.766602,155.811462 254.108093,156.090073 254.108093,156.090073 
	C258.972900,156.394852 263.834656,156.769409 268.703583,156.979263 
	C271.818237,157.113495 274.943390,157.004410 278.075195,158.081390 
	C269.722321,158.081390 261.369446,158.081390 252.415161,157.923981 
	C251.813721,157.766586 251.518539,157.441223 251.518539,157.441223 
z"/>
<path fill="#81978D" opacity="1.000000" stroke="none" 
	d="
M277.835815,151.004410 
	C280.274170,151.004410 282.237885,151.004410 284.201599,151.004410 
	C284.201172,151.245743 284.200745,151.487091 284.200348,151.728424 
	C275.658600,151.728424 267.116852,151.728424 258.575104,151.728424 
	C258.569763,151.487091 258.564423,151.245743 258.559082,151.004410 
	C264.826447,151.004410 271.093781,151.004410 277.835815,151.004410 
z"/>
<path fill="#BDC8C3" opacity="1.000000" stroke="none" 
	d="
M203.337097,185.463043 
	C203.891708,184.849274 204.446320,184.235489 205.395355,183.661285 
	C205.903824,183.842438 206.017838,183.984009 206.131866,184.125565 
	C209.987976,184.415527 213.841446,184.750458 217.701309,184.976227 
	C219.596039,185.087067 221.502625,184.995438 223.401703,186.081345 
	C217.292053,186.081345 211.182388,186.081345 204.416168,185.939957 
	C203.618759,185.686722 203.477921,185.574875 203.337097,185.463043 
z"/>
<path fill="#BDC8C3" opacity="1.000000" stroke="none" 
	d="
M213.658081,175.122513 
	C214.305054,175.323166 214.611786,175.603943 215.232147,175.941177 
	C213.648697,177.682495 211.751617,179.367355 209.281097,180.907684 
	C208.563705,180.659409 208.419754,180.555664 208.275803,180.451935 
	C209.956497,178.702179 211.637177,176.952423 213.658081,175.122513 
z"/>
<path fill="#B1BFB9" opacity="1.000000" stroke="none" 
	d="
M307.329407,255.445984 
	C307.143555,253.344543 307.183563,250.995880 307.468994,248.349579 
	C307.933350,248.132751 308.152252,248.213562 308.694794,248.161194 
	C308.530762,250.418259 308.043030,252.808517 307.329407,255.445984 
z"/>
<path fill="#B1BFB9" opacity="1.000000" stroke="none" 
	d="
M308.112061,266.045532 
	C307.613708,264.303741 307.362213,262.638000 307.091553,260.596497 
	C307.705261,261.957947 308.338165,263.695099 308.922119,265.800751 
	C308.701752,266.153351 308.530304,266.137482 308.112061,266.045532 
z"/>
<path fill="#81978D" opacity="1.000000" stroke="none" 
	d="
M253.603668,155.663116 
	C253.874863,155.205887 254.308975,154.897003 254.743073,154.588104 
	C254.701035,155.005768 254.658981,155.423416 254.362518,155.965576 
	C254.108093,156.090073 253.766602,155.811462 253.603668,155.663116 
z"/>
<path fill="#81978D" opacity="1.000000" stroke="none" 
	d="
M251.952286,157.937027 
	C251.650635,158.449707 251.210434,158.791946 250.770233,159.134186 
	C250.861984,158.678421 250.953735,158.222672 251.282013,157.604065 
	C251.518539,157.441223 251.813721,157.766586 251.952286,157.937027 
z"/>
<path fill="#FBFCFC" opacity="1.000000" stroke="none" 
	d="
M189.410858,164.770874 
	C189.377625,164.796432 189.444077,164.745346 189.410858,164.770874 
z"/>
<path fill="#D0D8D4" opacity="1.000000" stroke="none" 
	d="
M186.727585,191.827713 
	C186.781403,192.087479 186.400513,192.158890 185.938934,192.093658 
	C185.286758,191.717133 185.096191,191.405838 185.040375,190.966202 
	C185.175140,190.837860 185.445908,190.582443 185.445908,190.582443 
	C185.855194,190.910950 186.264481,191.239441 186.727585,191.827713 
z"/>
<path fill="#BDC8C3" opacity="1.000000" stroke="none" 
	d="
M197.327667,193.057678 
	C197.061676,193.093445 196.851151,192.652802 196.900436,192.413666 
	C196.949722,192.174515 197.085724,191.703568 197.444992,191.744278 
	C197.804260,191.784988 198.149292,192.146805 198.149292,192.146820 
	C197.964096,192.438507 197.778870,192.730194 197.327667,193.057678 
z"/>
<path fill="#FBFCFC" opacity="1.000000" stroke="none" 
	d="
M202.507538,163.500854 
	C202.489792,163.495956 202.525284,163.505768 202.507538,163.500854 
z"/>
<path fill="#BDC8C3" opacity="1.000000" stroke="none" 
	d="
M207.283035,181.445023 
	C207.433151,181.160248 207.640747,180.926529 208.090820,180.597900 
	C208.419754,180.555664 208.563705,180.659409 208.908264,180.938110 
	C208.933838,181.393478 208.758820,181.673920 208.144302,181.853241 
	C207.564209,181.649734 207.423615,181.547379 207.283035,181.445023 
z"/>
<path fill="#BDC8C3" opacity="1.000000" stroke="none" 
	d="
M207.899719,181.925461 
	C207.926987,182.382996 207.759338,182.667175 207.144470,182.861938 
	C206.550186,182.673660 206.403152,182.574783 206.256104,182.475922 
	C206.408401,182.178009 206.623581,181.936005 207.092331,181.597473 
	C207.423615,181.547379 207.564209,181.649734 207.899719,181.925461 
z"/>
<path fill="#BDC8C3" opacity="1.000000" stroke="none" 
	d="
M202.339005,186.460144 
	C202.493439,186.177475 202.699585,185.939636 203.147278,185.604828 
	C203.477921,185.574875 203.618759,185.686722 203.959106,185.980148 
	C203.974945,186.436249 203.791290,186.710785 203.174316,186.881714 
	C202.607010,186.672134 202.473007,186.566147 202.339005,186.460144 
z"/>
<path fill="#BDC8C3" opacity="1.000000" stroke="none" 
	d="
M197.640335,191.596252 
	C197.634079,191.126968 197.834366,190.881149 198.440735,190.727493 
	C198.804184,190.784912 199.149185,191.146683 199.149185,191.146683 
	C198.980515,191.432556 198.811829,191.718430 198.396210,192.075546 
	C198.149292,192.146805 197.804260,191.784988 197.640335,191.596252 
z"/>
<path fill="#BDC8C3" opacity="1.000000" stroke="none" 
	d="
M206.902069,182.941849 
	C206.944122,183.398010 206.781326,183.684845 206.375198,184.048615 
	C206.017838,183.984009 205.903824,183.842438 205.641785,183.471649 
	C205.617142,183.030365 205.772064,182.844635 206.107330,182.580566 
	C206.403152,182.574783 206.550186,182.673660 206.902069,182.941849 
z"/>
<path fill="#BDC8C3" opacity="1.000000" stroke="none" 
	d="
M198.640320,190.596176 
	C198.633652,190.127243 198.833572,189.881851 199.439758,189.728867 
	C199.803314,189.786484 200.148895,190.146652 200.148895,190.146637 
	C199.980255,190.432495 199.811630,190.718353 199.396088,191.075439 
	C199.149185,191.146683 198.804184,190.784912 198.640320,190.596176 
z"/>
<path fill="#D0D8D4" opacity="1.000000" stroke="none" 
	d="
M184.481903,189.523666 
	C184.792786,189.655823 185.044785,189.860504 185.341904,190.360077 
	C185.445908,190.582443 185.175140,190.837860 184.780029,190.916092 
	C184.222153,190.697083 184.059418,190.399857 184.043869,189.958771 
	C184.191055,189.814911 184.481903,189.523666 184.481903,189.523666 
z"/>
<path fill="#BDC8C3" opacity="1.000000" stroke="none" 
	d="
M201.157501,189.154358 
	C200.985550,189.437973 200.813583,189.721603 200.395264,190.075943 
	C200.148895,190.146652 199.803314,189.786484 199.639099,189.597870 
	C199.637375,189.120026 199.834885,188.857101 200.433167,188.687988 
	C200.918427,188.888428 201.037964,189.021393 201.157501,189.154358 
z"/>
<path fill="#D0D8D4" opacity="1.000000" stroke="none" 
	d="
M183.364716,188.639175 
	C183.808624,188.639145 184.052856,188.842758 184.365265,189.314056 
	C184.481903,189.523666 184.191055,189.814911 183.785645,189.901703 
	C183.226868,189.687256 183.073502,189.386047 182.920120,189.084824 
	C182.920120,189.084824 183.213501,188.784698 183.364716,188.639175 
z"/>
<path fill="#BDC8C3" opacity="1.000000" stroke="none" 
	d="
M200.634262,188.543732 
	C200.643326,188.062027 200.845978,187.815887 201.433899,187.667343 
	C201.905548,187.870758 202.020889,188.000412 202.136215,188.130051 
	C201.973251,188.419601 201.810272,188.709137 201.402405,189.076523 
	C201.037964,189.021393 200.918427,188.888428 200.634262,188.543732 
z"/>
<path fill="#BDC8C3" opacity="1.000000" stroke="none" 
	d="
M202.930267,186.950928 
	C202.953705,187.407944 202.787857,187.692184 202.379120,188.053238 
	C202.020889,188.000412 201.905548,187.870758 201.632812,187.533386 
	C201.616608,187.087082 201.792572,186.877747 202.171173,186.578903 
	C202.473007,186.566147 202.607010,186.672134 202.930267,186.950928 
z"/>
<path fill="#07311E" opacity="1.000000" stroke="none" 
	d="
M388.682526,247.351959 
	C395.495178,244.827957 400.549713,245.961517 403.785370,250.453476 
	C406.844055,254.699768 406.668304,260.827576 403.372162,264.862976 
	C400.239746,268.697937 394.631958,269.968231 389.731201,267.952911 
	C381.543427,264.585907 380.821320,253.919312 388.682526,247.351959 
z"/>
<path fill="#052F1B" opacity="1.000000" stroke="none" 
	d="
M348.069458,254.554535 
	C348.515198,262.067932 346.498932,266.042694 341.509186,268.023865 
	C335.486237,270.415222 328.787933,267.786560 326.491638,262.130402 
	C323.976562,255.935349 326.655029,249.165817 332.584259,246.731979 
	C338.998688,244.098984 344.921753,246.942535 348.069458,254.554535 
z"/>
<path fill="#052F1B" opacity="1.000000" stroke="none" 
	d="
M182.543243,189.023773 
	C183.073502,189.386047 183.226868,189.687256 183.638458,190.045547 
	C184.059418,190.399857 184.222153,190.697083 184.645264,191.044434 
	C185.096191,191.405838 185.286758,191.717133 185.764435,192.009399 
	C183.912872,192.326813 181.778946,192.912842 179.634705,192.953369 
	C172.947189,193.079727 166.255783,192.999710 158.607010,192.999710 
	C160.121475,190.873489 161.180832,189.386230 162.595154,187.795364 
	C168.299728,188.383057 173.642761,189.135483 179.004700,189.711685 
	C180.020035,189.820801 181.110550,189.230362 182.543243,189.023773 
z"/>
<path fill="#103825" opacity="1.000000" stroke="none" 
	d="
M164.553101,182.949097 
	C169.920929,182.974838 174.941086,183.158051 180.261261,183.695526 
	C175.335709,187.252945 169.507187,186.168228 163.404892,186.467529 
	C163.366028,185.393799 163.785721,184.250198 164.553101,182.949097 
z"/>
<path fill="#183F2C" opacity="1.000000" stroke="none" 
	d="
M183.824982,170.950684 
	C183.602341,171.841324 183.186646,172.400345 182.351929,172.855927 
	C181.932922,172.752472 181.889282,172.303375 181.889282,172.303375 
	C182.138702,171.789154 182.388138,171.274918 182.791901,170.517548 
	C183.174789,170.389282 183.403351,170.504181 183.824982,170.950684 
z"/>
<path fill="#07311E" opacity="1.000000" stroke="none" 
	d="
M277.444061,246.009445 
	C283.418243,245.455582 287.705750,247.438126 289.973419,252.678162 
	C291.922119,257.181122 291.302551,261.603058 287.984650,265.231476 
	C284.493744,269.049133 280.012024,269.799225 275.190399,268.069855 
	C270.363129,266.338409 268.289093,262.550262 268.082611,257.679718 
	C267.845947,252.096619 270.760712,248.435745 277.444061,246.009445 
z"/>
<path fill="#07311D" opacity="1.000000" stroke="none" 
	d="
M178.102142,257.901825 
	C176.817993,265.601166 172.111389,269.545807 165.526108,268.845245 
	C159.227371,268.175171 155.020813,263.239868 155.334457,256.888000 
	C155.648529,250.527649 160.282181,245.992920 166.564041,245.898209 
	C173.278503,245.796967 177.445709,249.976257 178.102142,257.901825 
z"/>
<path fill="#E1E6E4" opacity="1.000000" stroke="none" 
	d="
M181.525208,172.334229 
	C181.889282,172.303375 181.932922,172.752472 182.120773,172.877411 
	C180.252563,177.741241 177.320389,177.089874 173.859009,172.889893 
	C176.293060,172.714966 178.727097,172.540024 181.525208,172.334229 
z"/>
</svg>